# xmcd CD database file
#
# Track frame offsets:
#	150
#	11900
#	24852
#	37110
#	51404
#	68084
#	79646
#	91195
#	106719
#	119891
#	139459
#	156599
#
# Disc length: 2285 seconds
#
# Revision: 0
# Processed by: cddbd v1.5.1PL0 Copyright (c) Steve Scherf et al.
# Submitted via: CDex 1.51
#
DISCID=a408eb0c
DTITLE=Neon - Neon
DYEAR=2005
DGENRE=Rock
TTITLE0=Neon
TTITLE1=Friend
TTITLE2=Hit Me Again
TTITLE3=Lapse In Conversation
TTITLE4=Summer Rain
TTITLE5=Dizziness
TTITLE6=Happy Going Nowhere
TTITLE7=People Inside
TTITLE8=New Direction
TTITLE9=All I Want
TTITLE10=Into Your Eyes
TTITLE11=Everything
EXTD=YEAR: 2005
EXTT0=
EXTT1=
EXTT2=
EXTT3=
EXTT4=
EXTT5=
EXTT6=
EXTT7=
EXTT8=
EXTT9=
EXTT10=
EXTT11=
PLAYORDER=
